<svg width="183" height="95" viewBox="0 0 183 95" fill="none" xmlns="http://www.w3.org/2000/svg">
<g filter="url(#filter0_dd_1209_4089)">
<rect width="171" height="69" transform="translate(6)" fill="#2A4635"/>
<rect width="54" height="69" transform="translate(6)" fill="#C3C8BF"/>
<path d="M39.9907 22.508C42.7453 22.508 44.98 34.1267 44.98 48.4787H49C49 33.028 44.944 20.5214 39.9787 20.5214C37.1427 20.5214 34.636 24.268 32.9813 30.1574C31.3267 24.2694 28.82 20.5214 26.0067 20.5214C21.0413 20.5214 17 33.0174 17 48.468H21.0187C21.0187 34.1174 23.2293 22.508 25.984 22.508C28.7387 22.508 30.972 33.2414 30.972 46.4814H34.968C34.968 33.2414 37.2133 22.508 39.968 22.508H39.9907Z" fill="white"/>
<path d="M72.966 30V20.032H76.088L78.412 26.878L80.68 20.032H83.732V30H81.674V22.916L79.224 30H77.53L75.052 22.986V30H72.966ZM94.5712 26.15C94.4592 27.4007 94.0205 28.3947 93.2552 29.132C92.4898 29.8693 91.4398 30.238 90.1052 30.238C88.6585 30.238 87.4918 29.762 86.6052 28.81C85.7278 27.8487 85.2892 26.5793 85.2892 25.002C85.2892 23.5087 85.7325 22.2673 86.6192 21.278C87.5152 20.2887 88.7052 19.794 90.1892 19.794C91.3745 19.794 92.3685 20.13 93.1712 20.802C93.9738 21.474 94.4172 22.328 94.5012 23.364H92.3592C92.2472 22.8133 91.9952 22.3887 91.6032 22.09C91.2205 21.782 90.7352 21.628 90.1472 21.628C89.5405 21.628 89.0272 21.8007 88.6072 22.146C88.1965 22.482 87.9072 22.8973 87.7392 23.392C87.5712 23.8867 87.4872 24.428 87.4872 25.016C87.4872 26.0427 87.7252 26.864 88.2012 27.48C88.6772 28.0867 89.3165 28.39 90.1192 28.39C91.4538 28.39 92.2145 27.6433 92.4012 26.15H94.5712ZM96.0581 30V20.032H100.09C101.639 20.032 102.829 20.4613 103.66 21.32C104.5 22.1787 104.92 23.4107 104.92 25.016C104.92 26.6213 104.5 27.8533 103.66 28.712C102.829 29.5707 101.639 30 100.09 30H96.0581ZM98.2281 28.18H99.8241C101.756 28.18 102.722 27.1253 102.722 25.016C102.722 23.9987 102.479 23.2193 101.994 22.678C101.518 22.1273 100.795 21.852 99.8241 21.852H98.2281V28.18ZM110.929 19.794C112.385 19.794 113.561 20.2793 114.457 21.25C115.362 22.2113 115.815 23.4713 115.815 25.03C115.815 26.5887 115.362 27.8487 114.457 28.81C113.561 29.762 112.38 30.238 110.915 30.238C109.44 30.238 108.25 29.762 107.345 28.81C106.44 27.8487 105.987 26.5887 105.987 25.03C105.987 23.4527 106.435 22.188 107.331 21.236C108.236 20.2747 109.436 19.794 110.929 19.794ZM110.901 21.586C110.08 21.586 109.422 21.894 108.927 22.51C108.442 23.126 108.199 23.952 108.199 24.988C108.199 26.0613 108.442 26.9013 108.927 27.508C109.412 28.1147 110.08 28.4227 110.929 28.432C111.76 28.432 112.413 28.124 112.889 27.508C113.365 26.892 113.603 26.052 113.603 24.988C113.603 23.9427 113.36 23.1167 112.875 22.51C112.39 21.894 111.732 21.586 110.901 21.586ZM117.318 30V20.032H119.544L123.646 26.71V20.032H125.746V30H123.562L119.432 23.308V30H117.318ZM132.651 20.018L136.445 30H134.149L133.365 27.774H129.655L128.843 30H126.603L130.397 20.018H132.651ZM132.833 26.178L131.517 22.468L130.187 26.178H132.833ZM144.335 28.124V30H137.279V20.032H139.463V28.124H144.335ZM145.591 30V20.032H149.623C151.173 20.032 152.363 20.4613 153.193 21.32C154.033 22.1787 154.453 23.4107 154.453 25.016C154.453 26.6213 154.033 27.8533 153.193 28.712C152.363 29.5707 151.173 30 149.623 30H145.591ZM147.761 28.18H149.357C151.289 28.18 152.255 27.1253 152.255 25.016C152.255 23.9987 152.013 23.2193 151.527 22.678C151.051 22.1273 150.328 21.852 149.357 21.852H147.761V28.18ZM163.332 23H161.26C161.176 22.0107 160.546 21.516 159.37 21.516C158.866 21.516 158.47 21.6187 158.18 21.824C157.9 22.02 157.76 22.2953 157.76 22.65C157.76 22.7713 157.779 22.8787 157.816 22.972C157.854 23.0653 157.924 23.154 158.026 23.238C158.129 23.3127 158.232 23.378 158.334 23.434C158.437 23.4807 158.586 23.5367 158.782 23.602C158.988 23.658 159.17 23.7093 159.328 23.756C159.496 23.8027 159.73 23.8633 160.028 23.938C160.327 24.0127 160.588 24.0827 160.812 24.148C161.792 24.428 162.52 24.778 162.996 25.198C163.482 25.618 163.724 26.22 163.724 27.004C163.724 27.5733 163.608 28.0727 163.374 28.502C163.141 28.922 162.824 29.258 162.422 29.51C162.03 29.7527 161.596 29.93 161.12 30.042C160.654 30.1633 160.154 30.224 159.622 30.224C158.269 30.224 157.21 29.916 156.444 29.3C155.688 28.6747 155.306 27.7973 155.296 26.668H157.466C157.504 27.9187 158.255 28.544 159.72 28.544C160.29 28.544 160.738 28.4273 161.064 28.194C161.4 27.9513 161.568 27.6247 161.568 27.214C161.568 26.8687 161.414 26.6167 161.106 26.458C160.808 26.2993 160.173 26.08 159.202 25.8C159.146 25.7907 159.104 25.7813 159.076 25.772C159.048 25.7627 159.011 25.7533 158.964 25.744C158.918 25.7253 158.876 25.7113 158.838 25.702C158.502 25.6087 158.269 25.5433 158.138 25.506C158.008 25.4593 157.798 25.3847 157.508 25.282C157.228 25.1793 157.023 25.086 156.892 25.002C156.762 24.918 156.598 24.8013 156.402 24.652C156.216 24.5027 156.08 24.3487 155.996 24.19C155.912 24.022 155.833 23.8213 155.758 23.588C155.693 23.3453 155.66 23.084 155.66 22.804C155.66 21.8987 156.01 21.1753 156.71 20.634C157.41 20.0927 158.339 19.822 159.496 19.822C160.616 19.822 161.531 20.088 162.24 20.62C162.95 21.1427 163.314 21.936 163.332 23Z" fill="white"/>
<path d="M78.18 38.672V40.076C77.252 41.092 76.576 42.14 76.152 43.22C75.736 44.292 75.488 45.552 75.408 47H73.644C73.644 45.992 73.928 44.796 74.496 43.412C75.072 42.02 75.724 40.952 76.452 40.208H72.444V38.672H78.18ZM88.2118 40.808L86.1718 43.7L88.4638 47H86.5198L85.2118 44.996L83.9158 47H81.9838L84.2398 43.736L82.1878 40.808H84.1318L85.2358 42.464L86.3278 40.808H88.2118ZM89.0771 40.808H92.6411C93.2251 40.808 93.7011 40.94 94.0691 41.204C94.4371 41.46 94.6211 41.848 94.6211 42.368C94.6211 42.96 94.3411 43.384 93.7811 43.64C94.5331 43.856 94.9091 44.36 94.9091 45.152C94.9091 45.736 94.7091 46.192 94.3091 46.52C93.9171 46.84 93.4171 47 92.8091 47H89.0771V40.808ZM90.7571 43.292H91.8851C92.5571 43.292 92.8931 43.056 92.8931 42.584C92.8931 42.312 92.8011 42.128 92.6171 42.032C92.4411 41.936 92.1971 41.888 91.8851 41.888H90.7571V43.292ZM90.7571 45.896H92.0171C92.3691 45.896 92.6451 45.84 92.8451 45.728C93.0451 45.616 93.1451 45.4 93.1451 45.08C93.1451 44.752 93.0371 44.532 92.8211 44.42C92.6051 44.308 92.3131 44.252 91.9451 44.252H90.7571V45.896Z" fill="#C3C8BF"/>
</g>
<defs>
<filter id="filter0_dd_1209_4089" x="0" y="0" width="183" height="95" filterUnits="userSpaceOnUse" color-interpolation-filters="sRGB">
<feFlood flood-opacity="0" result="BackgroundImageFix"/>
<feColorMatrix in="SourceAlpha" type="matrix" values="0 0 0 0 0 0 0 0 0 0 0 0 0 0 0 0 0 0 127 0" result="hardAlpha"/>
<feMorphology radius="12" operator="erode" in="SourceAlpha" result="effect1_dropShadow_1209_4089"/>
<feOffset dy="20"/>
<feGaussianBlur stdDeviation="9"/>
<feComposite in2="hardAlpha" operator="out"/>
<feColorMatrix type="matrix" values="0 0 0 0 0.164706 0 0 0 0 0.27451 0 0 0 0 0.207843 0 0 0 0.5 0"/>
<feBlend mode="normal" in2="BackgroundImageFix" result="effect1_dropShadow_1209_4089"/>
<feColorMatrix in="SourceAlpha" type="matrix" values="0 0 0 0 0 0 0 0 0 0 0 0 0 0 0 0 0 0 127 0" result="hardAlpha"/>
<feMorphology radius="24" operator="erode" in="SourceAlpha" result="effect2_dropShadow_1209_4089"/>
<feOffset dy="24"/>
<feGaussianBlur stdDeviation="6"/>
<feComposite in2="hardAlpha" operator="out"/>
<feColorMatrix type="matrix" values="0 0 0 0 0.164706 0 0 0 0 0.27451 0 0 0 0 0.207843 0 0 0 1 0"/>
<feBlend mode="normal" in2="effect1_dropShadow_1209_4089" result="effect2_dropShadow_1209_4089"/>
<feBlend mode="normal" in="SourceGraphic" in2="effect2_dropShadow_1209_4089" result="shape"/>
</filter>
</defs>
</svg>
