<svg width="231" height="95" viewBox="0 0 231 95" fill="none" xmlns="http://www.w3.org/2000/svg">
<g filter="url(#filter0_dd_1209_3884)">
<rect width="219" height="69" transform="translate(6)" fill="#2A4635"/>
<rect width="54" height="69" transform="translate(6)" fill="#C6A682"/>
<path d="M25.1514 56.9896C30.5998 56.1906 35.268 54.114 40.6184 56.6404C41.592 57.1002 42.4438 55.6529 41.4664 55.1906C38.7981 53.9319 36.2153 53.3678 33.2706 53.6756C30.3787 53.9746 27.5835 54.9494 24.7067 55.3728C23.6389 55.5273 24.0949 57.1441 25.1514 56.9896Z" fill="white"/>
<path d="M34.5571 13.2694C34.3247 13.645 34.086 14.0156 33.8385 14.3812C33.733 14.5332 33.6224 14.6877 33.5093 14.8372C33.4629 14.9 33.4302 14.9452 33.4051 14.9829C33.395 14.993 33.3825 15.0055 33.3712 15.0181C32.5006 14.1073 31.2782 13.6902 30.0257 14.351C28.8097 14.9905 27.9881 16.861 28.8574 18.1072C30.3486 20.2479 32.5847 21.7617 35.2292 20.5268C37.0231 19.6876 38.2203 17.9225 39.2291 16.2894C41.1197 13.238 36.4452 10.2204 34.5571 13.2694Z" fill="white"/>
<path d="M35.9976 39.6387C35.5856 36.6488 35.9574 34.4767 37.1433 31.7368C38.1998 29.2959 39.1508 26.9103 38.9285 24.2005C38.8016 22.6692 36.3883 22.5498 36.5164 24.0988C36.7036 26.394 35.9574 28.3977 35.0881 30.4316C34.7313 30.3147 34.3205 30.36 33.9537 30.674C33.4788 31.0811 33.1446 30.9466 32.7615 30.4919C32.4298 30.0987 32.0153 30.017 31.6447 30.1225C30.9939 28.1163 30.4663 26.1603 30.8294 23.9744C31.0844 22.4405 28.6673 22.3589 28.4173 23.8739C27.636 28.5824 31.0593 32.5685 30.5103 37.1802C30.1723 40.0093 30.3093 42.8509 30.0128 45.6788C29.7377 48.3144 29.0932 50.641 29.0932 53.308C29.092 54.862 31.5052 54.9675 31.5052 53.4085C31.5077 51.0153 31.9236 48.881 32.3193 46.5292C32.4009 46.0381 32.4562 45.5443 32.5002 45.0494C33.1032 45.0016 33.6635 44.881 34.2062 44.6537C34.2677 45.1562 34.3306 45.6587 34.3883 46.1599C34.6647 48.597 35.8355 50.8156 35.6986 53.298C35.6132 54.8545 38.0265 54.9524 38.1106 53.3985C38.2312 51.2088 37.5101 49.1561 37.0164 47.0468C36.4524 44.6461 36.3343 42.0871 35.9976 39.6387Z" fill="white"/>
<path d="M33.6987 29.4974C34.0718 29.4095 34.4977 29.0892 34.5756 28.6884C34.7841 27.6281 34.8268 26.6143 34.7062 25.5415C34.6346 24.8857 33.8419 24.5026 33.2578 24.637C32.656 24.7764 32.3671 25.2689 32.3457 25.8216C32.0166 25.9912 31.7716 26.3153 31.7515 26.7977C31.7164 27.6847 31.837 28.5201 32.5367 29.1394C32.8696 29.4321 33.244 29.603 33.6987 29.4974Z" fill="white"/>
<path d="M72.966 21.5V11.532H76.088L78.412 18.378L80.68 11.532H83.732V21.5H81.674V14.416L79.224 21.5H77.53L75.052 14.486V21.5H72.966ZM93.1432 11.532V13.324H87.8372V15.494H92.7092V17.216H87.8372V19.666H93.2412V21.5H85.6672V11.532H93.1432ZM104.447 24.062H102.333V21.5H96.0053V24.062H93.8913V19.638H94.6473C95.2166 18.8727 95.6226 17.9627 95.8653 16.908C96.1173 15.844 96.2433 14.556 96.2433 13.044V11.532H103.341V19.638H104.447V24.062ZM101.157 19.638V13.31H98.4133V13.478C98.4133 15.97 97.97 18.0233 97.0833 19.638H101.157ZM114.084 11.532V21.5H111.9V14.584H111.858L108.106 21.5H105.642V11.532H107.826V18.434H107.868L111.62 11.532H114.084ZM119.169 17.664C118.002 17.664 117.115 17.3933 116.509 16.852C115.902 16.3013 115.599 15.41 115.599 14.178V11.532H117.783V14.206C117.783 14.8033 117.899 15.228 118.133 15.48C118.375 15.7227 118.777 15.844 119.337 15.844C119.794 15.844 120.452 15.7693 121.311 15.62V11.532H123.495V21.5H121.311V17.384C120.405 17.5707 119.691 17.664 119.169 17.664ZM133.799 11.532V21.5H131.615V17.202H127.541V21.5H125.357V11.532H127.541V15.284H131.615V11.532H133.799ZM144.176 11.532V21.5H141.992V14.584H141.95L138.198 21.5H135.734V11.532H137.918V18.434H137.96L141.712 11.532H144.176ZM154.553 11.532V21.5H152.369V14.584H152.327L148.575 21.5H146.111V11.532H148.295V18.434H148.337L152.089 11.532H154.553ZM151.837 8.844H152.621C152.621 10.188 151.86 10.86 150.339 10.86C148.817 10.86 148.057 10.188 148.057 8.844H148.841C148.962 9.46 149.461 9.768 150.339 9.768C151.216 9.768 151.715 9.46 151.837 8.844ZM169.904 24.062H167.79V21.5H160.356V11.532H162.54V19.638H166.614V11.532H168.798V19.638H169.904V24.062ZM178.456 11.532V13.324H173.15V15.494H178.022V17.216H173.15V19.666H178.554V21.5H170.98V11.532H178.456ZM187.464 11.532V13.394H184.468V21.5H182.27V13.394H179.274V11.532H187.464ZM188.63 11.532H192.928C194.048 11.532 194.935 11.8027 195.588 12.344C196.251 12.876 196.582 13.674 196.582 14.738C196.582 15.7833 196.256 16.5767 195.602 17.118C194.949 17.65 194.095 17.916 193.04 17.916H190.8V21.5H188.63V11.532ZM190.8 13.324V16.194H192.746C193.885 16.194 194.454 15.718 194.454 14.766C194.454 13.8047 193.89 13.324 192.76 13.324H190.8ZM82.668 41.062H80.554V38.5H74.226V41.062H72.112V36.638H72.868C73.4373 35.8727 73.8433 34.9627 74.086 33.908C74.338 32.844 74.464 31.556 74.464 30.044V28.532H81.562V36.638H82.668V41.062ZM79.378 36.638V30.31H76.634V30.478C76.634 32.97 76.1907 35.0233 75.304 36.638H79.378ZM88.3705 28.294C89.8265 28.294 91.0025 28.7793 91.8985 29.75C92.8038 30.7113 93.2565 31.9713 93.2565 33.53C93.2565 35.0887 92.8038 36.3487 91.8985 37.31C91.0025 38.262 89.8218 38.738 88.3565 38.738C86.8818 38.738 85.6918 38.262 84.7865 37.31C83.8812 36.3487 83.4285 35.0887 83.4285 33.53C83.4285 31.9527 83.8765 30.688 84.7725 29.736C85.6778 28.7747 86.8772 28.294 88.3705 28.294ZM88.3425 30.086C87.5212 30.086 86.8632 30.394 86.3685 31.01C85.8832 31.626 85.6405 32.452 85.6405 33.488C85.6405 34.5613 85.8832 35.4013 86.3685 36.008C86.8538 36.6147 87.5212 36.9227 88.3705 36.932C89.2012 36.932 89.8545 36.624 90.3305 36.008C90.8065 35.392 91.0445 34.552 91.0445 33.488C91.0445 32.4427 90.8018 31.6167 90.3165 31.01C89.8312 30.394 89.1732 30.086 88.3425 30.086ZM96.957 32.116H99.561C100.616 32.116 101.47 32.3867 102.123 32.928C102.776 33.46 103.103 34.2487 103.103 35.294C103.103 36.358 102.772 37.1607 102.109 37.702C101.456 38.234 100.569 38.5 99.449 38.5H94.787V28.532H102.179V30.338H96.957V32.116ZM100.975 35.266C100.975 34.314 100.406 33.838 99.267 33.838H96.957V36.708H99.281C100.41 36.708 100.975 36.2273 100.975 35.266ZM104.63 28.532H108.928C110.048 28.532 110.935 28.8027 111.588 29.344C112.251 29.876 112.582 30.674 112.582 31.738C112.582 32.7833 112.256 33.5767 111.602 34.118C110.949 34.65 110.095 34.916 109.04 34.916H106.8V38.5H104.63V28.532ZM106.8 30.324V33.194H108.746C109.885 33.194 110.454 32.718 110.454 31.766C110.454 30.8047 109.89 30.324 108.76 30.324H106.8ZM118.462 28.294C119.918 28.294 121.094 28.7793 121.99 29.75C122.896 30.7113 123.348 31.9713 123.348 33.53C123.348 35.0887 122.896 36.3487 121.99 37.31C121.094 38.262 119.914 38.738 118.448 38.738C116.974 38.738 115.784 38.262 114.878 37.31C113.973 36.3487 113.52 35.0887 113.52 33.53C113.52 31.9527 113.968 30.688 114.864 29.736C115.77 28.7747 116.969 28.294 118.462 28.294ZM118.434 30.086C117.613 30.086 116.955 30.394 116.46 31.01C115.975 31.626 115.732 32.452 115.732 33.488C115.732 34.5613 115.975 35.4013 116.46 36.008C116.946 36.6147 117.613 36.9227 118.462 36.932C119.293 36.932 119.946 36.624 120.422 36.008C120.898 35.392 121.136 34.552 121.136 33.488C121.136 32.4427 120.894 31.6167 120.408 31.01C119.923 30.394 119.265 30.086 118.434 30.086ZM127.049 32.116H129.653C130.707 32.116 131.561 32.3867 132.215 32.928C132.868 33.46 133.195 34.2487 133.195 35.294C133.195 36.358 132.863 37.1607 132.201 37.702C131.547 38.234 130.661 38.5 129.541 38.5H124.879V28.532H132.271V30.338H127.049V32.116ZM131.067 35.266C131.067 34.314 130.497 33.838 129.359 33.838H127.049V36.708H129.373C130.502 36.708 131.067 36.2273 131.067 35.266ZM135.17 38.458V36.61C135.525 36.7593 135.875 36.834 136.22 36.834C136.538 36.834 136.785 36.7547 136.962 36.596C137.14 36.428 137.228 36.2227 137.228 35.98C137.228 35.896 137.219 35.812 137.2 35.728C137.182 35.644 137.154 35.5507 137.116 35.448C137.079 35.3453 137.046 35.266 137.018 35.21C136.99 35.1447 136.944 35.0513 136.878 34.93C136.822 34.8087 136.785 34.7293 136.766 34.692L133.84 28.532H136.262L138.516 33.782L140.728 28.532H143.066L139.706 35.868C139.23 36.9133 138.754 37.646 138.278 38.066C137.802 38.4767 137.172 38.682 136.388 38.682C135.95 38.682 135.544 38.6073 135.17 38.458ZM151.452 28.532V30.394H148.456V38.5H146.258V30.394H143.262V28.532H151.452Z" fill="white"/>
<path d="M76.752 47.1V55.5H74.94V50.04H72.9V48.78H73.116C74.388 48.78 75.132 48.22 75.348 47.1H76.752ZM84.572 47.172V48.624H81.128L80.804 50.448C81.196 50.056 81.712 49.86 82.352 49.86C83.16 49.86 83.808 50.112 84.296 50.616C84.784 51.12 85.028 51.784 85.028 52.608C85.028 53.488 84.732 54.212 84.14 54.78C83.548 55.348 82.788 55.632 81.86 55.632C80.98 55.632 80.26 55.408 79.7 54.96C79.148 54.504 78.848 53.856 78.8 53.016H80.48C80.52 53.384 80.664 53.684 80.912 53.916C81.168 54.14 81.484 54.252 81.86 54.252C82.284 54.252 82.632 54.104 82.904 53.808C83.176 53.504 83.312 53.116 83.312 52.644C83.312 52.172 83.18 51.796 82.916 51.516C82.652 51.236 82.296 51.096 81.848 51.096C81.312 51.096 80.892 51.328 80.588 51.792H79.064L79.88 47.172H84.572ZM94.8798 49.308L92.8398 52.2L95.1318 55.5H93.1878L91.8798 53.496L90.5838 55.5H88.6518L90.9078 52.236L88.8558 49.308H90.7998L91.9038 50.964L92.9958 49.308H94.8798ZM95.7451 49.308H99.3091C99.8931 49.308 100.369 49.44 100.737 49.704C101.105 49.96 101.289 50.348 101.289 50.868C101.289 51.46 101.009 51.884 100.449 52.14C101.201 52.356 101.577 52.86 101.577 53.652C101.577 54.236 101.377 54.692 100.977 55.02C100.585 55.34 100.085 55.5 99.4771 55.5H95.7451V49.308ZM97.4251 51.792H98.5531C99.2251 51.792 99.5611 51.556 99.5611 51.084C99.5611 50.812 99.4691 50.628 99.2851 50.532C99.1091 50.436 98.8651 50.388 98.5531 50.388H97.4251V51.792ZM97.4251 54.396H98.6851C99.0371 54.396 99.3131 54.34 99.5131 54.228C99.7131 54.116 99.8131 53.9 99.8131 53.58C99.8131 53.252 99.7051 53.032 99.4891 52.92C99.2731 52.808 98.9811 52.752 98.6131 52.752H97.4251V54.396Z" fill="#C3C8BF"/>
</g>
<defs>
<filter id="filter0_dd_1209_3884" x="0" y="0" width="231" height="95" filterUnits="userSpaceOnUse" color-interpolation-filters="sRGB">
<feFlood flood-opacity="0" result="BackgroundImageFix"/>
<feColorMatrix in="SourceAlpha" type="matrix" values="0 0 0 0 0 0 0 0 0 0 0 0 0 0 0 0 0 0 127 0" result="hardAlpha"/>
<feMorphology radius="12" operator="erode" in="SourceAlpha" result="effect1_dropShadow_1209_3884"/>
<feOffset dy="20"/>
<feGaussianBlur stdDeviation="9"/>
<feComposite in2="hardAlpha" operator="out"/>
<feColorMatrix type="matrix" values="0 0 0 0 0.164706 0 0 0 0 0.27451 0 0 0 0 0.207843 0 0 0 0.5 0"/>
<feBlend mode="normal" in2="BackgroundImageFix" result="effect1_dropShadow_1209_3884"/>
<feColorMatrix in="SourceAlpha" type="matrix" values="0 0 0 0 0 0 0 0 0 0 0 0 0 0 0 0 0 0 127 0" result="hardAlpha"/>
<feMorphology radius="24" operator="erode" in="SourceAlpha" result="effect2_dropShadow_1209_3884"/>
<feOffset dy="24"/>
<feGaussianBlur stdDeviation="6"/>
<feComposite in2="hardAlpha" operator="out"/>
<feColorMatrix type="matrix" values="0 0 0 0 0.164706 0 0 0 0 0.27451 0 0 0 0 0.207843 0 0 0 1 0"/>
<feBlend mode="normal" in2="effect1_dropShadow_1209_3884" result="effect2_dropShadow_1209_3884"/>
<feBlend mode="normal" in="SourceGraphic" in2="effect2_dropShadow_1209_3884" result="shape"/>
</filter>
</defs>
</svg>
