<svg width="151" height="151" viewBox="0 0 151 151" fill="none" xmlns="http://www.w3.org/2000/svg">
<g id="logo">
<g id="shadow" filter="url(#filter0_f_1207_3739)">
<circle cx="75.2812" cy="75.2812" r="63.2812" fill="#C6A682"/>
</g>
<circle id="Ellipse 15" cx="75.2812" cy="75.2812" r="61.0312" fill="#2A4635" stroke="#C6A682" stroke-width="4.5"/>
<g id="Layer 2">
<path id="Vector" d="M45.8161 95.0929H43.0925L42.8945 56.3694L44.7818 58.9123L44.8794 61.6961L47.9459 71.3359L47.7981 73.2359L49.1697 81.1293L48.5675 81.8411L48.3808 83.7225V84.4661L47.9431 85.895V89.2953L46.7667 90.7401L45.8161 95.0929ZM43.4716 94.7304H45.5066L46.4043 90.5945L47.5584 89.1815V85.8315L47.9877 84.4264V83.7146L48.1912 81.7088L48.7488 81.0393L47.4106 73.265L47.5556 71.3862L44.4891 61.7437L44.3943 59.0314L43.2792 57.5178L43.4716 94.7304Z" fill="white"/>
<path id="Vector_2" d="M43.0542 94.9125H40.7962L38.0781 78.2313L38.9535 77.448L38.9033 74.1298L39.341 72.4257L39.2434 71.1344L39.5361 70.5363L39.4385 69.1074L40.7488 66.6201L41.2338 62.4286L40.9913 61.2749L41.1864 60.4916L40.9439 60.0312L41.0889 58.7875L41.9614 57.176L42.3991 57.0357L42.5998 56.0673L42.8925 56.0911L43.0542 94.9125Z" fill="white"/>
<path id="Vector_3" d="M43.2442 95.0934H40.6348L37.875 78.1661L38.7615 77.3722L38.7113 74.1122L39.1462 72.4107L39.0486 71.1035L39.3274 70.5028L39.2298 69.0713L40.5484 66.568L41.0419 62.4374L40.7965 61.2731L40.9833 60.5163L40.7464 60.0638L40.9192 58.7064L41.828 57.0261L42.235 56.8991L42.4441 55.875L43.0797 55.9253L43.2442 95.0934ZM40.961 94.7309H42.8622L42.7033 56.5074L42.564 57.1743L42.0956 57.3224L41.2593 58.8413L41.1255 59.9977L41.3736 60.4713L41.1729 61.2784L41.4126 62.4189L40.9192 66.703L39.6313 69.1454L39.7288 70.5716L39.4361 71.1697L39.5476 72.4425L39.096 74.1519L39.1434 77.5257L38.282 78.2984L40.961 94.7309Z" fill="white"/>
<path id="Vector_4" d="M43.457 57.4406L44.692 61.7352L44.5944 58.9727L43.457 57.4406Z" fill="white"/>
<path id="Vector_5" d="M44.9358 63.2833L42.9844 56.5039L44.7797 58.9198L44.9358 63.2833ZM43.9266 58.3853L44.4451 60.1979L44.4061 59.031L43.9266 58.3853Z" fill="white"/>
<path id="Vector_6" d="M40.7488 66.6196L39.4385 69.107L39.5361 70.5359L39.2434 71.1339L39.341 72.4253L38.9033 74.1294L38.9535 77.4476L38.0781 78.2309L39.6783 87.6379L40.7488 66.6196Z" fill="white"/>
<path id="Vector_7" d="M39.7818 89.3746L37.875 78.1655L38.7615 77.3717L38.7113 74.1117L39.1462 72.4102L39.0486 71.103L39.3274 70.5023L39.2298 69.0708L40.9694 65.7737L39.7818 89.3746ZM38.282 78.2978L39.5755 85.9028L40.515 67.4699L39.6313 69.1449L39.7288 70.5711L39.4501 71.1692L39.5476 72.4419L39.096 74.1514L39.1434 77.5252L38.282 78.2978Z" fill="white"/>
<path id="Vector_8" d="M78.7179 70.6691C78.1604 70.8067 74.5531 70.7988 74.0429 70.6479C74.1767 70.55 74.2938 70.46 74.4137 70.3833C74.5795 70.2797 74.7157 70.1387 74.81 69.9729C74.9044 69.8072 74.954 69.6218 74.9545 69.4333C74.9545 67.6922 74.9545 65.9537 74.9545 64.2125C74.9504 64.0142 74.8979 63.8194 74.8012 63.6436C74.7045 63.4678 74.5661 63.3156 74.397 63.1991C74.2799 63.1117 74.1684 63.0191 73.9844 62.8736L77.7422 62.2253V63.7494L77.876 63.7944C78.0154 63.6542 78.1548 63.5113 78.297 63.3711C79.1054 62.5772 80.0616 62.1168 81.2715 62.2094C82.5789 62.3099 83.5379 63.1541 83.5937 64.3978C83.6466 65.5779 83.616 66.7607 83.6243 67.9409C83.6243 68.2055 83.6243 68.4702 83.6243 68.7506C83.6438 69.87 83.694 69.9652 84.5694 70.6506C84.1512 70.8014 80.5383 70.8252 79.8888 70.6823C79.8888 70.6638 79.8888 70.6347 79.8888 70.6268C80.7056 70.1954 80.8756 69.5021 80.8505 68.6792C80.8143 67.499 80.8505 66.3162 80.8338 65.1334C80.8351 64.8034 80.7881 64.4748 80.6944 64.157C80.4519 63.3896 79.755 63.0535 78.9995 63.3896C78.6041 63.599 78.2465 63.867 77.9402 64.1834C77.8431 64.3173 77.7987 64.4794 77.8147 64.6412C77.8147 66.1336 77.8147 67.626 77.8147 69.1185C77.8147 69.6927 77.9959 70.1769 78.5535 70.4812C78.6064 70.5158 78.6526 70.5587 78.6901 70.6082C78.6901 70.6082 78.6901 70.6453 78.704 70.6638" fill="white"/>
<path id="Vector_9" d="M63.6077 58.7707C63.7275 59.9138 63.8363 60.9829 63.9478 62.0519L63.853 62.1022C63.7526 61.9911 63.6495 61.8852 63.5547 61.7714C62.9581 61.0596 62.395 60.3187 61.7538 59.6545C61.3941 59.2939 60.9775 58.9886 60.5189 58.7495C60.1263 58.5195 59.662 58.4254 59.2047 58.4833C58.7474 58.5412 58.3253 58.7474 58.0099 59.0671C57.5438 59.5075 57.1884 60.042 56.9701 60.6309C56.6278 61.5283 56.4295 62.4693 56.3819 63.4226C56.2341 64.9695 56.3852 66.529 56.8279 68.0242C57.0274 68.727 57.3924 69.3776 57.8956 69.9268C58.7319 70.8159 59.6937 70.9403 60.7586 70.2946C61.5534 69.7779 62.2421 69.1277 62.7909 68.3762C63.1421 67.9316 63.4683 67.4739 63.8586 67.0319C63.906 68.1407 63.6774 69.2229 63.616 70.3714C63.2564 70.464 62.9107 70.5725 62.5539 70.636C61.3127 70.8783 60.0459 70.9814 58.7793 70.9429C55.9916 70.8424 53.9203 69.2997 53.229 66.7435C52.7867 65.1905 52.8489 63.547 53.4074 62.0281C53.7901 60.9611 54.5019 60.028 55.4504 59.3499C56.3989 58.6718 57.5403 58.2801 58.7264 58.2256C60.3737 58.1593 62.0216 58.3433 63.6077 58.7707Z" fill="white"/>
<path id="Vector_10" d="M104.223 65.1822C104.223 64.5789 104.248 64.0205 104.223 63.4648C104.195 63.007 104.017 62.5969 103.496 62.4646C103.261 62.4024 103.011 62.4131 102.783 62.4949C102.555 62.5768 102.36 62.7256 102.227 62.9197C101.829 63.444 101.558 64.0461 101.436 64.6821C101.377 64.9202 101.327 65.1584 101.257 65.4627L99.2416 64.3248C99.4028 64.0905 99.5768 63.8644 99.7629 63.6474C100.524 62.8278 101.593 62.3235 102.74 62.2423C103.413 62.1772 104.092 62.2066 104.756 62.3296C106.194 62.6181 106.908 63.5151 106.925 64.9758C106.925 65.9284 106.88 66.8836 106.855 67.8362C106.855 68.2729 106.835 68.7068 106.827 69.1434C106.827 69.4081 106.844 69.6727 107.128 69.7785C107.412 69.8844 107.633 69.7415 107.828 69.5615C107.903 69.4901 107.973 69.4081 108.051 69.3234C107.964 70.1622 107.022 70.8925 105.999 70.9269C104.976 70.9613 104.416 70.4983 104.151 69.2387L103.744 69.6356C103.133 70.2974 102.3 70.7378 101.385 70.8819C100.706 70.997 100.005 70.8555 99.434 70.4877C99.1923 70.3333 98.9883 70.1314 98.8359 69.8958C98.6835 69.6601 98.5862 69.3961 98.5505 69.1217C98.5148 68.8472 98.5416 68.5687 98.6291 68.305C98.7166 68.0412 98.8627 67.7983 99.0576 67.5928C99.4635 67.1332 99.9645 66.7576 100.53 66.4894C101.53 66.0369 102.595 65.7167 103.632 65.3462C103.797 65.288 103.967 65.251 104.209 65.1848M104.19 65.4494C103.635 65.5469 103.107 65.7523 102.64 66.0527C101.469 66.7487 101.305 67.9686 101.592 68.9423C101.639 69.1365 101.749 69.3117 101.906 69.4432C102.064 69.5748 102.261 69.6559 102.47 69.6753C102.884 69.7034 103.294 69.5765 103.611 69.3219C103.928 69.0673 104.128 68.7051 104.168 68.3126C104.184 67.651 104.193 66.9895 104.201 66.3253C104.201 66.0422 104.201 65.759 104.201 65.4415" fill="white"/>
<path id="Vector_11" d="M108.532 58.5592L112.251 57.9294C112.251 58.1597 112.278 58.4005 112.278 58.6413V68.1673C112.278 68.3976 112.278 68.6251 112.278 68.8527C112.256 69.5989 112.398 70.2684 113.251 70.6124C112.805 70.8055 109.206 70.8399 108.526 70.6838C109.452 69.8397 109.452 69.8397 109.452 68.5378C109.452 66.0681 109.452 63.5984 109.452 61.1286C109.452 60.819 109.452 60.5068 109.432 60.1972C109.442 59.9244 109.379 59.6536 109.249 59.4105C109.118 59.1674 108.924 58.96 108.685 58.808C108.593 58.755 108.49 58.718 108.406 58.673L108.534 58.5592" fill="white"/>
<path id="Vector_12" d="M73.4075 65.5576H67.701C67.4864 67.0024 68.1303 68.254 69.3179 68.7938C70.0371 69.112 70.8482 69.1912 71.6206 69.0188C72.061 68.9314 72.376 68.9817 73.4354 67.7195C73.0367 70.3471 70.8985 71.1595 68.975 70.8949C68.1683 70.7794 67.4075 70.4653 66.7686 69.9837C66.1297 69.5022 65.6349 68.87 65.3337 68.1503C65.0324 67.4306 64.9352 66.6486 65.0517 65.8821C65.1683 65.1156 65.4944 64.3915 65.9977 63.7821C66.3553 63.3162 66.8201 62.9339 67.3568 62.6643C67.8935 62.3946 68.488 62.2448 69.0949 62.2261C69.7246 62.1836 70.3574 62.2336 70.971 62.3743C71.6941 62.5669 72.3279 62.9848 72.7703 63.5608C73.2128 64.1368 73.4382 64.8373 73.4103 65.5497M70.8735 65.2851C70.9104 64.5323 70.7454 63.783 70.394 63.1073C70.3047 62.8992 70.1522 62.7211 69.9558 62.5957C69.7594 62.4703 69.5281 62.4033 69.2914 62.4033C69.0547 62.4033 68.8234 62.4703 68.627 62.5957C68.4306 62.7211 68.2781 62.8992 68.1889 63.1073C67.8278 63.7777 67.665 64.5285 67.7178 65.2798L70.8735 65.2851Z" fill="white"/>
<path id="Vector_13" d="M96.2081 70.7206H91.2683C91.2683 70.6597 91.2683 70.6306 91.2683 70.6253C92.0544 70.194 92.2021 69.5007 92.1882 68.7122C92.1659 67.4473 92.1882 66.1825 92.1882 64.915C92.1882 64.1211 92.0878 63.3696 91.0898 62.8907L94.9007 62.2265L94.9871 63.5257C96.2889 62.2027 97.1559 61.9063 98.285 62.4249C98.1679 63.2982 98.0508 64.1926 97.9114 65.2457C97.6689 64.952 97.5406 64.7668 97.3817 64.608C97.0639 64.2958 96.7461 63.9835 96.4005 63.703C96.2854 63.5879 96.1316 63.5146 95.9657 63.4957C95.7997 63.4769 95.632 63.5137 95.4917 63.5998C95.3386 63.6794 95.2117 63.7977 95.1251 63.9416C95.0385 64.0854 94.9955 64.2492 95.001 64.4148C95.0177 65.6188 95.001 66.8228 95.001 68.0242C95.001 68.3576 95.001 68.6883 95.001 69.0218C95.001 69.6859 95.2463 70.1861 95.9182 70.456C96.0321 70.5093 96.1428 70.5685 96.2499 70.6333L96.2081 70.7206Z" fill="white"/>
<path id="Vector_14" d="M85.7035 62.7346L84.8672 62.6764C86.1997 61.8693 87.4012 61.1152 88.4438 60.0938V62.3694L90.7381 62.4091C90.3283 62.6102 90.3283 62.6102 89.6035 62.6102H88.5247C88.5052 62.8457 88.4773 63.0257 88.4773 63.2056C88.4624 64.7933 88.4541 66.3889 88.4522 67.9925C88.4486 68.26 88.4814 68.5268 88.5498 68.7863C88.5838 68.961 88.6614 69.1254 88.7761 69.2657C88.8909 69.4061 89.0394 69.5183 89.2092 69.5929C89.379 69.6675 89.5652 69.7024 89.7522 69.6947C89.9391 69.687 90.1214 69.6368 90.2837 69.5484C90.4398 69.4796 90.5848 69.3843 90.8413 69.2494C90.8069 69.3762 90.7593 69.4994 90.6991 69.6172C90.4664 69.9583 90.1598 70.2484 89.7998 70.4683C89.4398 70.6882 89.0346 70.8329 88.6111 70.8926C87.3176 71.0805 85.762 70.5275 85.7147 68.6302C85.6812 67.2013 85.7147 65.7724 85.7147 64.3408V62.7346" fill="white"/>
<path id="Vector_15" d="M61.2288 87.6523C61.2985 87.5808 61.3208 87.5358 61.3543 87.5226C62.2296 87.1918 62.5251 86.5674 62.4945 85.6994C62.4527 84.4346 62.4945 83.1697 62.4945 81.9049C62.4945 81.762 62.4777 81.6217 62.4666 81.4444H57.5658C57.549 81.6111 57.5212 81.7726 57.5184 81.9313C57.5184 83.1353 57.5184 84.3367 57.5184 85.5407C57.5184 85.7047 57.5379 85.8714 57.5379 86.0381C57.5209 86.3309 57.6014 86.6214 57.7681 86.8684C57.9347 87.1153 58.1789 87.3063 58.4662 87.4141C58.5565 87.4567 58.644 87.5044 58.7283 87.557C58.7319 87.5851 58.7319 87.6136 58.7283 87.6417C58.7283 87.6602 58.7032 87.6893 58.6892 87.6893L53.5152 87.7211C53.4121 87.7211 53.3089 87.6999 53.0469 87.6734C53.3452 87.4935 53.5152 87.3903 53.6908 87.2924C53.886 87.1961 54.0506 87.0522 54.1677 86.8754C54.2848 86.6987 54.3502 86.4955 54.3571 86.2869C54.3738 85.9561 54.4073 85.6253 54.4101 85.2946C54.4101 82.7825 54.4101 80.2731 54.4101 77.7663C54.4101 77.5387 54.3933 77.3085 54.3933 77.081C54.4178 76.7781 54.3391 76.4758 54.169 76.2186C53.9989 75.9614 53.7462 75.7628 53.4483 75.652C53.3547 75.6048 53.2668 75.548 53.1863 75.4827C53.1863 75.4827 53.1863 75.4456 53.1863 75.3874H58.9095C58.6 75.57 58.416 75.6864 58.2237 75.7923C58.036 75.8812 57.8773 76.0168 57.7644 76.1845C57.6515 76.3522 57.5886 76.5459 57.5825 76.7449C57.5825 77.9833 57.5825 79.2243 57.5825 80.5077H62.4276C62.4554 80.4215 62.4741 80.3328 62.4833 80.2431C62.4833 79.1846 62.4833 78.1262 62.4833 77.0677C62.5073 76.7759 62.4338 76.4843 62.2731 76.2344C62.1124 75.9845 61.8729 75.7891 61.5885 75.6759C61.4742 75.6256 61.3682 75.5568 61.2344 75.4827C61.6721 75.3186 65.6948 75.271 66.9353 75.4139C66.7716 75.5254 66.6013 75.6279 66.4252 75.7208C66.198 75.8257 66.0051 75.9872 65.8671 76.1881C65.7291 76.389 65.6512 76.6217 65.6418 76.8613C65.6223 77.0889 65.6139 77.3165 65.6139 77.544V85.5115C65.6139 85.6783 65.6139 85.8423 65.6139 86.009C65.5956 86.3017 65.6735 86.5925 65.8368 86.8413C66.0001 87.0902 66.2407 87.2848 66.5255 87.3982C66.6471 87.4576 66.7652 87.5229 66.8796 87.5941C66.4252 87.7475 62.1627 87.7872 61.2205 87.6496" fill="white"/>
<path id="Vector_16" d="M82.7568 87.6943H77.8559C77.9647 87.5779 78.0037 87.5117 78.0622 87.48C78.6755 87.1651 78.8651 86.6438 78.8651 86.0219C78.8651 84.3408 78.8651 82.6605 78.8651 80.9811C78.8651 79.9041 78.8651 78.8245 78.8651 77.7475C78.8651 76.8901 78.8038 76.0672 77.75 75.5538L81.6528 74.8896C81.6528 75.0934 81.6891 75.3289 81.6891 75.5671C81.6891 78.7812 81.6891 81.9954 81.6891 85.2096C81.6891 85.543 81.7141 85.8738 81.7141 86.2045C81.6989 86.4549 81.7589 86.7043 81.8872 86.9236C82.0155 87.1428 82.2069 87.3229 82.439 87.4429C82.5477 87.5241 82.6501 87.6125 82.7456 87.7075" fill="white"/>
<path id="Vector_17" d="M77.3976 87.6728H72.625C72.7323 87.5788 72.8449 87.4905 72.9623 87.4082C73.179 87.2853 73.3564 87.1089 73.4757 86.8978C73.595 86.6867 73.6517 86.4488 73.6397 86.2095C73.6397 85.9448 73.662 85.6802 73.6648 85.4156V78.1943C73.6648 77.8847 73.6397 77.5751 73.6397 77.2629C73.6675 76.9508 73.6041 76.6376 73.4566 76.3575C73.309 76.0774 73.083 75.8413 72.8034 75.6752C72.756 75.6487 72.7337 75.5826 72.6919 75.5244L76.4665 74.8813C76.4665 75.0745 76.4944 75.2889 76.4944 75.5058C76.4944 78.6547 76.4944 81.8045 76.4944 84.9552C76.4944 85.2039 76.5083 85.4527 76.4944 85.7014C76.447 86.4952 76.5919 87.1938 77.4059 87.6675" fill="white"/>
<path id="Vector_18" d="M89.4662 79.6667C89.5415 80.5002 89.6112 81.2756 89.6781 82.0482L89.5694 82.0932C89.4746 81.9688 89.3909 81.8286 89.2906 81.7175C88.7916 81.1432 88.3205 80.5426 87.7741 80.0107C87.4756 79.7418 87.116 79.5417 86.7231 79.4259C86.5776 79.3781 86.4223 79.3635 86.2698 79.3831C86.1173 79.4028 85.9718 79.4563 85.845 79.5393C85.7183 79.6222 85.6139 79.7323 85.5403 79.8606C85.4667 79.9889 85.4259 80.1319 85.4212 80.278C85.3857 80.5154 85.4188 80.7575 85.517 80.9784C85.6152 81.1993 85.7748 81.3907 85.9788 81.5322C86.3997 81.8259 86.8681 82.0615 87.3141 82.3102C87.9872 82.6515 88.6387 83.0296 89.2655 83.4427C89.716 83.7641 90.0422 84.2176 90.1934 84.7329C90.3446 85.2482 90.3124 85.7965 90.1018 86.2926C89.7171 87.2452 88.9031 87.7162 87.9079 87.8618C86.486 88.0317 85.0421 87.837 83.7263 87.2982C83.6259 86.4382 83.5284 85.602 83.4141 84.6176C83.6036 84.8267 83.6928 84.9219 83.7876 85.0278C84.3033 85.6417 84.7773 86.2953 85.3432 86.8642C85.7064 87.1898 86.1224 87.4579 86.5753 87.658C87.3001 88.0179 88.2619 87.4516 88.1086 86.4276C88.082 86.231 88.0128 86.0419 87.9053 85.872C87.7978 85.7021 87.6544 85.5552 87.4841 85.4406C87.0242 85.1257 86.5363 84.8505 86.0596 84.5594C85.5021 84.2128 84.8916 83.9058 84.3591 83.5142C84.0815 83.3115 83.8539 83.0538 83.6921 82.759C83.5303 82.4642 83.4383 82.1395 83.4224 81.8074C83.3444 80.7252 83.8406 79.889 84.8888 79.4735C85.2923 79.3194 85.7181 79.224 86.1516 79.1904C87.28 79.1341 88.4085 79.2999 89.4662 79.6773" fill="white"/>
<path id="Vector_19" d="M72.1872 87.6791H67.4732C68.4516 86.8111 68.4712 86.7715 68.4767 85.4907C68.4767 84.4323 68.4767 83.3738 68.4767 82.3154C68.4767 81.9846 68.4433 81.6538 68.4238 81.3231C68.4227 81.0745 68.3564 80.8302 68.2308 80.6121C68.1052 80.394 67.9243 80.2091 67.7045 80.0741C67.6081 80.0242 67.5085 79.98 67.4062 79.9418L67.515 79.8359L71.2672 79.1797V85.0382C71.2672 85.2261 71.2672 85.4113 71.2672 85.5992C71.2672 86.4089 71.3146 87.1869 72.2987 87.5865L72.1872 87.6791Z" fill="white"/>
<path id="Vector_20" d="M71.1174 76.8002C71.1089 77.1563 70.9561 77.4955 70.6907 77.7474C70.4254 77.9992 70.068 78.1443 69.6929 78.1524C69.3075 78.1596 68.9345 78.0237 68.6532 77.7736C68.372 77.5234 68.2049 77.1789 68.1875 76.8134C68.2154 76.4628 68.3819 76.1351 68.6535 75.896C68.9252 75.6569 69.282 75.524 69.6525 75.524C70.0229 75.524 70.3797 75.6569 70.6514 75.896C70.923 76.1351 71.0895 76.4628 71.1174 76.8134" fill="white"/>
<path id="Vector_21" d="M56.5296 93.7567H55.8382V95.2095H55.4953V93.7567H54.8012L53.7809 95.2095H53.3711L54.5141 93.5768L53.4575 92.0447H53.8394L54.7956 93.463H55.4953V92.0447H55.8382V93.463H56.5296L57.4914 92.0447H57.8733L56.8167 93.5768L57.9597 95.2095H57.5499L56.5296 93.7567Z" fill="white"/>
<path id="Vector_22" d="M58.7617 92.0447H59.1102V94.667L61.2428 92.0447H61.5634V95.2095H61.2149V92.5898L59.0795 95.2095H58.7617V92.0447Z" fill="white"/>
<path id="Vector_23" d="M65.107 92.3331H63.9334V95.2095H63.5877V92.3331H62.4141V92.0447H65.107V92.3331Z" fill="white"/>
<path id="Vector_24" d="M68.4024 92.0447V95.22H68.0539V92.3331H66.4454L66.4064 93.3916C66.3994 93.7467 66.3621 94.1006 66.2948 94.45C66.2573 94.6687 66.1613 94.8746 66.0161 95.048C65.9566 95.1126 65.8827 95.1637 65.7997 95.1976C65.7168 95.2314 65.6268 95.2473 65.5366 95.2439C65.4426 95.2443 65.349 95.2336 65.2578 95.2121L65.2857 94.9131C65.3376 94.9256 65.391 94.9318 65.4446 94.9316C65.5106 94.9331 65.5759 94.9194 65.6351 94.8918C65.6944 94.8641 65.7457 94.8233 65.7847 94.7728C65.8893 94.6262 65.957 94.4587 65.9826 94.2833C66.035 93.992 66.0648 93.6975 66.0718 93.4021L66.1192 92.0473L68.4024 92.0447Z" fill="white"/>
<path id="Vector_25" d="M70.3323 95.0375C70.0716 94.9033 69.8547 94.7038 69.7051 94.4607C69.5553 94.2097 69.4766 93.9262 69.4766 93.6377C69.4766 93.3493 69.5553 93.0658 69.7051 92.8148C69.8547 92.5717 70.0716 92.3722 70.3323 92.2379C70.6093 92.102 70.9167 92.031 71.2285 92.031C71.5404 92.031 71.8478 92.102 72.1248 92.2379C72.3847 92.3722 72.6008 92.5718 72.7493 92.8148C72.899 93.0667 72.9777 93.3511 72.9777 93.6404C72.9777 93.9297 72.899 94.214 72.7493 94.466C72.6008 94.709 72.3847 94.9085 72.1248 95.0428C71.8478 95.1788 71.5404 95.2498 71.2285 95.2498C70.9167 95.2498 70.6093 95.1788 70.3323 95.0428M71.9464 94.7782C72.1553 94.6691 72.3281 94.5069 72.4454 94.3099C72.5642 94.1038 72.6265 93.8727 72.6265 93.6377C72.6265 93.4028 72.5642 93.1717 72.4454 92.9656C72.3281 92.7679 72.1554 92.6048 71.9464 92.4946C71.7258 92.3834 71.4798 92.3252 71.2299 92.3252C70.9801 92.3252 70.7341 92.3834 70.5135 92.4946C70.3029 92.6046 70.1283 92.7676 70.0089 92.9656C69.8883 93.1711 69.825 93.4025 69.825 93.6377C69.825 93.873 69.8883 94.1043 70.0089 94.3099C70.1285 94.5071 70.3031 94.6692 70.5135 94.7782C70.7341 94.8894 70.9801 94.9476 71.2299 94.9476C71.4798 94.9476 71.7258 94.8894 71.9464 94.7782Z" fill="white"/>
<path id="Vector_26" d="M76.5608 93.8408C76.6859 93.9848 76.7504 94.1676 76.7421 94.3541C76.7487 94.4752 76.7243 94.596 76.6709 94.7062C76.6174 94.8164 76.5366 94.9126 76.4354 94.9865C76.1674 95.1511 75.8506 95.2291 75.5322 95.2088H74.0547V92.0335H75.4485C75.7433 92.0164 76.0362 92.0887 76.2849 92.2398C76.3837 92.3089 76.463 92.4002 76.5156 92.5055C76.5681 92.6108 76.5923 92.7268 76.5859 92.8432C76.591 93.0038 76.5411 93.1616 76.4438 93.293C76.3407 93.4172 76.2009 93.5093 76.0423 93.5576C76.2451 93.5871 76.4316 93.6803 76.572 93.8222M74.4143 93.4571H75.4346C75.6434 93.4708 75.8512 93.4187 76.0256 93.3089C76.0911 93.255 76.1437 93.1883 76.1797 93.1135C76.2158 93.0386 76.2344 92.9572 76.2344 92.8749C76.2344 92.7926 76.2158 92.7113 76.1797 92.6364C76.1437 92.5615 76.0911 92.4949 76.0256 92.441C75.8512 92.3312 75.6434 92.2791 75.4346 92.2928H74.4143V93.4571ZM76.4047 94.3118C76.4047 93.9149 76.1176 93.7164 75.5433 93.7164H74.4282V94.923H75.5433C76.1176 94.923 76.4047 94.7193 76.4047 94.3118Z" fill="white"/>
<path id="Vector_27" d="M77.8672 92.0447H78.2129V94.667L80.3483 92.0447H80.6661V95.2095H80.3176V92.5898L78.185 95.2095H77.8672V92.0447Z" fill="white"/>
<path id="Vector_28" d="M82.0273 92.044H82.3758V94.6663L84.5084 92.044H84.829V95.2194H84.4805V92.6023L82.3451 95.2194H82.0273V92.044ZM82.8637 91.6603C82.7953 91.6091 82.7406 91.5434 82.7038 91.4685C82.667 91.3936 82.6492 91.3116 82.6518 91.229H82.9138C82.9132 91.284 82.9259 91.3384 82.9511 91.388C82.9762 91.4376 83.0131 91.481 83.0588 91.5148C83.169 91.582 83.2972 91.6178 83.4282 91.6178C83.5592 91.6178 83.6874 91.582 83.7976 91.5148C83.8438 91.4814 83.881 91.4381 83.9062 91.3884C83.9314 91.3387 83.9438 91.2841 83.9425 91.229H84.2046C84.2072 91.3116 84.1894 91.3936 84.1526 91.4685C84.1158 91.5434 84.061 91.6091 83.9927 91.6603C83.8233 91.7605 83.6277 91.8136 83.4282 91.8136C83.2286 91.8136 83.033 91.7605 82.8637 91.6603Z" fill="white"/>
<path id="Vector_29" d="M88.7836 93.7567H88.0226V95.2095H87.6797V92.0447H88.0226V93.463H88.7836L89.9127 92.0447H90.2946L89.054 93.5821L90.3643 95.2095H89.96L88.7836 93.7567Z" fill="white"/>
<path id="Vector_30" d="M93.6507 93.8408C93.7757 93.9848 93.8403 94.1676 93.8319 94.3541C93.8386 94.4752 93.8141 94.596 93.7607 94.7062C93.7073 94.8164 93.6265 94.9126 93.5252 94.9865C93.2575 95.1515 92.9405 95.2295 92.622 95.2088H91.1445V92.0335H92.5384C92.8332 92.0164 93.126 92.0887 93.3747 92.2398C93.4727 92.3095 93.5512 92.401 93.6032 92.5062C93.6552 92.6114 93.6792 92.7271 93.673 92.8432C93.6781 93.0038 93.6282 93.1616 93.5308 93.293C93.4278 93.4172 93.288 93.5093 93.1294 93.5576C93.3324 93.5865 93.519 93.6798 93.6591 93.8222M91.5014 93.4571H92.5133C92.723 93.4704 92.9314 93.4184 93.1071 93.3089C93.1718 93.2545 93.2236 93.1877 93.2591 93.1129C93.2946 93.0381 93.313 92.957 93.313 92.8749C93.313 92.7929 93.2946 92.7118 93.2591 92.637C93.2236 92.5621 93.1718 92.4953 93.1071 92.441C92.9314 92.3315 92.723 92.2795 92.5133 92.2928H91.493L91.5014 93.4571ZM93.4918 94.3118C93.4918 93.9149 93.2047 93.7164 92.6304 93.7164H91.5153V94.923H92.6304C93.2047 94.923 93.4918 94.7193 93.4918 94.3118Z" fill="white"/>
<path id="Vector_31" d="M97.0853 94.3623H95.2287L94.8272 95.2091H94.4648L95.9897 92.0337H96.3354L97.8603 95.2091H97.4895L97.0853 94.3623ZM96.9571 94.0977L96.157 92.3909L95.3569 94.0924L96.9571 94.0977Z" fill="white"/>
<path id="Vector_32" d="M100.98 92.3326C101.094 92.4345 101.185 92.5575 101.247 92.694C101.309 92.8305 101.341 92.9777 101.341 93.1264C101.341 93.2751 101.309 93.4223 101.247 93.5588C101.185 93.6953 101.094 93.8183 100.98 93.9202C100.693 94.1248 100.338 94.2261 99.9794 94.206H99.0845V95.2063H98.7305V92.0309H99.9794C100.339 92.0104 100.694 92.1127 100.98 92.3193M100.726 93.6953C100.815 93.6247 100.884 93.5356 100.93 93.435C100.975 93.3344 100.995 93.2251 100.989 93.1158C100.996 93.0049 100.976 92.894 100.93 92.7916C100.885 92.6892 100.815 92.5982 100.726 92.5257C100.508 92.3749 100.241 92.3019 99.971 92.3193H99.0845V93.907H99.971C100.241 93.9245 100.508 93.8514 100.726 93.7006" fill="white"/>
<path id="Vector_33" d="M104.378 92.3331H103.207V95.2095H102.858V92.3331H101.688V92.0447H104.378V92.3331Z" fill="white"/>
<path id="Vector_34" d="M107.205 94.3623H105.337L104.938 95.2091H104.57L106.095 92.0337H106.452L107.974 95.2091H107.603L107.205 94.3623ZM107.074 94.0977L106.274 92.3909L105.474 94.0924L107.074 94.0977Z" fill="white"/>
<path id="Vector_35" d="M111.474 92.0447V95.22H111.125V92.3331H109.522L109.483 93.3916C109.478 93.7467 109.44 94.1008 109.372 94.45C109.333 94.6684 109.237 94.874 109.093 95.048C109.033 95.1124 108.958 95.1633 108.875 95.1971C108.792 95.231 108.701 95.2469 108.611 95.2439C108.517 95.2443 108.423 95.2336 108.332 95.2121L108.363 94.9131C108.414 94.9256 108.466 94.9318 108.519 94.9316C108.585 94.9331 108.65 94.9194 108.709 94.8918C108.769 94.8641 108.82 94.8233 108.859 94.7728C108.964 94.6262 109.031 94.4587 109.057 94.2833C109.109 93.992 109.14 93.6975 109.149 93.4021L109.196 92.0473L111.474 92.0447Z" fill="white"/>
</g>
</g>
<defs>
<filter id="filter0_f_1207_3739" x="0" y="0" width="150.562" height="150.562" filterUnits="userSpaceOnUse" color-interpolation-filters="sRGB">
<feFlood flood-opacity="0" result="BackgroundImageFix"/>
<feBlend mode="normal" in="SourceGraphic" in2="BackgroundImageFix" result="shape"/>
<feGaussianBlur stdDeviation="6" result="effect1_foregroundBlur_1207_3739"/>
</filter>
</defs>
</svg>
