<svg width="150" height="95" viewBox="0 0 150 95" fill="none" xmlns="http://www.w3.org/2000/svg">
<g filter="url(#filter0_dd_1209_3905)">
<rect width="138" height="69" transform="translate(6)" fill="#2A4635"/>
<rect width="54" height="69" transform="translate(6)" fill="#C6A682"/>
<path d="M47.1233 22.0584C44.0789 22.2312 38.0278 22.8601 34.2922 25.1468C34.0344 25.3045 33.8883 25.5851 33.8883 25.8784V46.0934C33.8883 46.7351 34.59 47.1407 35.1817 46.8429C39.025 44.9084 44.5833 44.3807 47.3317 44.2362C48.27 44.1868 48.9994 43.4345 48.9994 42.5329V23.764C49 22.7801 48.1467 22.0007 47.1233 22.0584ZM31.7072 25.1468C27.9722 22.8601 21.9211 22.2318 18.8767 22.0584C17.8533 22.0007 17 22.7801 17 23.764V42.5334C17 43.4357 17.7294 44.1879 18.6678 44.2368C21.4172 44.3812 26.9783 44.9095 30.8217 46.8451C31.4117 47.1423 32.1111 46.7373 32.1111 46.0973V25.8684C32.1111 25.5745 31.9656 25.3051 31.7072 25.1468Z" fill="white"/>
<path d="M72.938 30V20.032H75.122V28.138H78.44V20.032H80.624V28.138H83.942V20.032H86.126V30H72.938ZM96.8807 20.032L92.9747 23.966L97.2447 30H94.5007L91.4767 25.52L90.2027 26.78V30H88.0467V20.032H90.2027V24.176L94.1227 20.032H96.8807ZM102.384 19.794C103.84 19.794 105.016 20.2793 105.912 21.25C106.817 22.2113 107.27 23.4713 107.27 25.03C107.27 26.5887 106.817 27.8487 105.912 28.81C105.016 29.762 103.835 30.238 102.37 30.238C100.895 30.238 99.7055 29.762 98.8002 28.81C97.8948 27.8487 97.4422 26.5887 97.4422 25.03C97.4422 23.4527 97.8902 22.188 98.7862 21.236C99.6915 20.2747 100.891 19.794 102.384 19.794ZM102.356 21.586C101.535 21.586 100.877 21.894 100.382 22.51C99.8968 23.126 99.6542 23.952 99.6542 24.988C99.6542 26.0613 99.8968 26.9013 100.382 27.508C100.867 28.1147 101.535 28.4227 102.384 28.432C103.215 28.432 103.868 28.124 104.344 27.508C104.82 26.892 105.058 26.052 105.058 24.988C105.058 23.9427 104.815 23.1167 104.33 22.51C103.845 21.894 103.187 21.586 102.356 21.586ZM116.622 20.032V30H114.438V21.894H111.764L111.624 26.122C111.53 28.838 110.606 30.196 108.852 30.196C108.366 30.196 107.956 30.14 107.62 30.028V28.264C107.844 28.376 108.1 28.432 108.39 28.432C108.735 28.432 109.001 28.278 109.188 27.97C109.374 27.6527 109.482 27.0273 109.51 26.094L109.678 20.032H116.622ZM123.463 20.018L127.257 30H124.961L124.177 27.774H120.467L119.655 30H117.415L121.209 20.018H123.463ZM123.645 26.178L122.329 22.468L120.999 26.178H123.645Z" fill="white"/>
<path d="M78.468 43.652V45.068H77.34V47H75.756V45.068H72.156V43.496L75.804 38.576H77.34V43.652H78.468ZM75.756 43.652V40.532L73.524 43.652H75.756ZM88.2118 40.808L86.1718 43.7L88.4638 47H86.5198L85.2118 44.996L83.9158 47H81.9838L84.2398 43.736L82.1878 40.808H84.1318L85.2358 42.464L86.3278 40.808H88.2118ZM89.0771 40.808H92.6411C93.2251 40.808 93.7011 40.94 94.0691 41.204C94.4371 41.46 94.6211 41.848 94.6211 42.368C94.6211 42.96 94.3411 43.384 93.7811 43.64C94.5331 43.856 94.9091 44.36 94.9091 45.152C94.9091 45.736 94.7091 46.192 94.3091 46.52C93.9171 46.84 93.4171 47 92.8091 47H89.0771V40.808ZM90.7571 43.292H91.8851C92.5571 43.292 92.8931 43.056 92.8931 42.584C92.8931 42.312 92.8011 42.128 92.6171 42.032C92.4411 41.936 92.1971 41.888 91.8851 41.888H90.7571V43.292ZM90.7571 45.896H92.0171C92.3691 45.896 92.6451 45.84 92.8451 45.728C93.0451 45.616 93.1451 45.4 93.1451 45.08C93.1451 44.752 93.0371 44.532 92.8211 44.42C92.6051 44.308 92.3131 44.252 91.9451 44.252H90.7571V45.896Z" fill="#C3C8BF"/>
</g>
<defs>
<filter id="filter0_dd_1209_3905" x="0" y="0" width="150" height="95" filterUnits="userSpaceOnUse" color-interpolation-filters="sRGB">
<feFlood flood-opacity="0" result="BackgroundImageFix"/>
<feColorMatrix in="SourceAlpha" type="matrix" values="0 0 0 0 0 0 0 0 0 0 0 0 0 0 0 0 0 0 127 0" result="hardAlpha"/>
<feMorphology radius="12" operator="erode" in="SourceAlpha" result="effect1_dropShadow_1209_3905"/>
<feOffset dy="20"/>
<feGaussianBlur stdDeviation="9"/>
<feComposite in2="hardAlpha" operator="out"/>
<feColorMatrix type="matrix" values="0 0 0 0 0.164706 0 0 0 0 0.27451 0 0 0 0 0.207843 0 0 0 0.5 0"/>
<feBlend mode="normal" in2="BackgroundImageFix" result="effect1_dropShadow_1209_3905"/>
<feColorMatrix in="SourceAlpha" type="matrix" values="0 0 0 0 0 0 0 0 0 0 0 0 0 0 0 0 0 0 127 0" result="hardAlpha"/>
<feMorphology radius="24" operator="erode" in="SourceAlpha" result="effect2_dropShadow_1209_3905"/>
<feOffset dy="24"/>
<feGaussianBlur stdDeviation="6"/>
<feComposite in2="hardAlpha" operator="out"/>
<feColorMatrix type="matrix" values="0 0 0 0 0.164706 0 0 0 0 0.27451 0 0 0 0 0.207843 0 0 0 1 0"/>
<feBlend mode="normal" in2="effect1_dropShadow_1209_3905" result="effect2_dropShadow_1209_3905"/>
<feBlend mode="normal" in="SourceGraphic" in2="effect2_dropShadow_1209_3905" result="shape"/>
</filter>
</defs>
</svg>
