<svg width="250" height="87" viewBox="0 0 250 87" fill="none" xmlns="http://www.w3.org/2000/svg">
<g clip-path="url(#clip0_479_299)">
<path d="M0 0H28.9607V61.701H69.6766V86.3815H0V0Z" fill="#2A4635"/>
<path d="M75.9922 0H149.879V23.6969H104.455V32.4577H146.787V53.3154H104.455V62.6948H150.499V86.3815H75.9922V0Z" fill="#2A4635"/>
<path d="M151.984 0H184.413L201.242 48.499L218.071 0H250.001L214.858 87H187.138L151.984 0Z" fill="#2A4635"/>
<path d="M33.707 0.740234H38.0898C41.7709 0.740234 44.3131 3.26506 44.3131 6.56051C44.3146 7.35964 44.1519 8.15059 43.835 8.8846C43.5181 9.6186 43.0538 10.2801 42.4707 10.8283C41.8876 11.3765 41.1981 11.7998 40.4446 12.072C39.6911 12.3442 38.8897 12.4597 38.0898 12.4112H33.707V0.740234ZM38.0898 10.5658C38.6234 10.6001 39.1582 10.5226 39.6599 10.338C40.1615 10.1535 40.6187 9.86605 41.0021 9.49434C41.3854 9.12262 41.6862 8.67488 41.8852 8.18001C42.0842 7.68514 42.1769 7.15416 42.1573 6.62135C42.1781 6.08686 42.0865 5.55395 41.8883 5.05689C41.6902 4.55983 41.3899 4.10963 41.0068 3.73525C40.6237 3.36086 40.1662 3.07058 39.6638 2.88308C39.1614 2.69557 38.6253 2.61499 38.0898 2.64653H35.7713V10.5962L38.0898 10.5658Z" fill="#2A4635"/>
<path d="M46.8164 0.740234H55.5107V2.57555H48.8705V5.61751H54.7582V7.46296H48.8705V10.5962H55.5921V12.4416H46.8164V0.740234Z" fill="#2A4635"/>
<path d="M57.375 0.740234H59.6528L63.1814 9.73429L66.6998 0.740234H68.9268L64.0559 12.5228H62.2459L57.375 0.740234Z" fill="#2A4635"/>
<path d="M33.707 16.0098H42.4115V17.8451H35.7713V20.887H41.659V22.7224H35.7713V25.8657H42.4929V27.701H33.707V16.0098Z" fill="#2A4635"/>
<path d="M47.2852 16.0098H49.3393V25.8353H55.5117V27.701H47.2852V16.0098Z" fill="#2A4635"/>
<path d="M57.1406 21.8917C57.1406 20.2701 57.7867 18.7149 58.9366 17.5682C60.0865 16.4215 61.6462 15.7773 63.2724 15.7773C64.8987 15.7773 66.4583 16.4215 67.6082 17.5682C68.7582 18.7149 69.4042 20.2701 69.4042 21.8917C69.4166 22.694 69.2672 23.4907 68.9649 24.2344C68.6627 24.9781 68.2137 25.6537 67.6447 26.2211C67.0757 26.7885 66.3981 27.2362 65.6523 27.5376C64.9065 27.839 64.1076 27.9879 63.3029 27.9756C62.5021 27.9962 61.7053 27.8552 60.9605 27.5612C60.2156 27.2672 59.5379 26.8262 58.9682 26.2647C58.3984 25.7032 57.9482 25.0327 57.6447 24.2934C57.3411 23.5542 57.1904 22.7614 57.2016 21.9627M67.2993 21.9627C67.3128 21.4283 67.2202 20.8966 67.0269 20.398C66.8337 19.8995 66.5435 19.4439 66.173 19.0576C65.8026 18.6712 65.3592 18.3617 64.8684 18.1468C64.3776 17.9319 63.849 17.8158 63.3131 17.8053C62.7779 17.8047 62.2481 17.9125 61.7558 18.122C61.2636 18.3316 60.8191 18.6385 60.4493 19.0244C60.0794 19.4102 59.792 19.8668 59.6043 20.3667C59.4167 20.8665 59.3327 21.3991 59.3574 21.9322C59.3439 22.4666 59.4365 22.9983 59.6298 23.4969C59.823 23.9954 60.1132 24.451 60.4837 24.8373C60.8541 25.2237 61.2975 25.5332 61.7883 25.7481C62.2791 25.963 62.8077 26.0791 63.3436 26.0896C63.8784 26.0887 64.4075 25.98 64.8991 25.77C65.3907 25.5599 65.8346 25.2529 66.2041 24.8674C66.5737 24.4819 66.8612 24.0258 67.0494 23.5266C67.2376 23.0274 67.3226 22.4954 67.2993 21.9627Z" fill="#2A4635"/>
<path d="M33.707 31.2803H47.3434C50.0788 31.2803 51.7973 32.8317 51.7973 35.1943C51.7973 37.8205 49.6924 39.1894 47.1095 39.1894H35.7713V42.9411H33.7375L33.707 31.2803ZM47.1807 37.3642C48.7365 37.3642 49.7026 36.4922 49.7026 35.2754C49.7026 33.9065 48.6857 33.2474 47.1807 33.2474H35.7713V37.4554L47.1807 37.3642Z" fill="#2A4635"/>
<path d="M53.6797 31.2803H55.8761L61.2453 37.1918L66.6144 31.2803H68.8109V42.9715H66.7568V34.0992L61.2453 40.1019H61.1843L55.7134 34.1296V42.9715H53.6797V31.2803Z" fill="#2A4635"/>
<path d="M33.707 46.5527H42.4115V48.3881H35.7713V51.43H41.659V53.2653H35.7713V56.4087H42.4929V58.244H33.707V46.5527Z" fill="#2A4635"/>
<path d="M46.2812 46.5527H48.193L54.4773 54.6342V46.5527H56.5009V58.244H54.7722L48.3048 49.9293V58.244H46.2812V46.5527Z" fill="#2A4635"/>
<path d="M63.0655 48.459H59.3438V46.5527H68.8617V48.459H65.14V58.244H63.0655V48.459Z" fill="#2A4635"/>
</g>
<defs>
<clipPath id="clip0_479_299">
<rect width="250" height="87" fill="white"/>
</clipPath>
</defs>
</svg>
